<svg width="24" height="25" viewBox="0 0 24 25" fill="none" xmlns="http://www.w3.org/2000/svg">
<g clip-path="url(#clip0_98_623)">
<path d="M5 7.5H6C6.53043 7.5 7.03914 7.28929 7.41421 6.91421C7.78929 6.53914 8 6.03043 8 5.5C8 5.23478 8.10536 4.98043 8.29289 4.79289C8.48043 4.60536 8.73478 4.5 9 4.5H15C15.2652 4.5 15.5196 4.60536 15.7071 4.79289C15.8946 4.98043 16 5.23478 16 5.5C16 6.03043 16.2107 6.53914 16.5858 6.91421C16.9609 7.28929 17.4696 7.5 18 7.5H19C19.5304 7.5 20.0391 7.71071 20.4142 8.08579C20.7893 8.46086 21 8.96957 21 9.5V18.5C21 19.0304 20.7893 19.5391 20.4142 19.9142C20.0391 20.2893 19.5304 20.5 19 20.5H5C4.46957 20.5 3.96086 20.2893 3.58579 19.9142C3.21071 19.5391 3 19.0304 3 18.5V9.5C3 8.96957 3.21071 8.46086 3.58579 8.08579C3.96086 7.71071 4.46957 7.5 5 7.5" stroke="#1C2439" stroke-width="1.5" stroke-linecap="round" stroke-linejoin="round"/>
<path d="M12 16.5C13.6569 16.5 15 15.1569 15 13.5C15 11.8431 13.6569 10.5 12 10.5C10.3431 10.5 9 11.8431 9 13.5C9 15.1569 10.3431 16.5 12 16.5Z" stroke="#1C2439" stroke-width="1.5" stroke-linecap="round" stroke-linejoin="round"/>
</g>
<defs>
<clipPath id="clip0_98_623">
<rect width="24" height="24" fill="white" transform="translate(0 0.5)"/>
</clipPath>
</defs>
</svg>
